<svg data-v-0dd9719b="" version="1.0" xmlns="http://www.w3.org/2000/svg" xmlns:xlink="http://www.w3.org/1999/xlink" width="100%" height="100%" viewBox="0 0 340.000000 250.000000" preserveAspectRatio="xMidYMid meet" color-interpolation-filters="sRGB" style="margin: auto;"> <rect data-v-0dd9719b="" x="0" y="0" width="100%" height="100%" fill="#ffffff" fill-opacity="1" class="background"></rect> <rect data-v-0dd9719b="" x="0" y="0" width="100%" height="100%" fill="url(#watermark)" fill-opacity="1" class="watermarklayer"></rect> <g data-v-0dd9719b="" class="iconmbgsvg" transform="translate(68.59233093261719,83.53937530517578)"><g fill="#1c085d" hollow-target="textRect"><g fill="#3a211c" class="iconsvg-imagesvg icon_container" mask="url(#52203fff-0e60-4981-a14a-30a23bca3577)"><rect fill="#1c085d" fill-opacity="0" stroke-width="2" x="0" y="0" width="67.5" height="67.5" class="image-rect"></rect> <svg viewBox="0 0 60 60" x="0" y="0" width="67.5" height="67.5" class="image-svg-svg bn" style="overflow: visible;"><g hollow-target="iconBnFill" mask="url(#e0818671-6a9c-4076-baf3-5e88ca812435)"><g><svg fill="#000000" xmlns="http://www.w3.org/2000/svg" xmlns:xlink="http://www.w3.org/1999/xlink" version="1.1" x="0" y="0" viewBox="5 5 90 90" enable-background="new 0 0 100 100" xml:space="preserve" style="overflow: visible;" width="60" height="60" filtersec="colorsf7065111473" filter="url(#DowHCe_FT18MnoMtJmr5s)"><g transform="scale(1, 1) skewX(0)"><polygon points="50,5 64.351,15.355 81.82,18.18 84.645,35.649 95,50 84.645,64.351 81.82,81.82 64.351,84.645 50,95 35.649,84.645   18.18,81.82 15.355,64.351 5,50 15.355,35.649 18.18,18.18 35.649,15.355 "></polygon></g><defs><filter id="DowHCe_FT18MnoMtJmr5s"><feColorMatrix type="matrix" values="0 0 0 0 0.2265625  0 0 0 0 0.12890625  0 0 0 0 0.109375  0 0 0 1 0"></feColorMatrix></filter></defs></svg></g> <g filter="url(#colors186719591)"><svg viewBox="0 0 70 69" xmlns="http://www.w3.org/2000/svg" width="54" height="54" x="3" y="3" class="image-svg-icon"><path d="M55.136 34.604c22.78 11.555 18.166 21.94-5.598 13.884 8.348 23.492-2.554 28.54-14.534 6.02-12.079 22.52-22.979 17.472-14.435-6.02-23.863 8.057-28.478-2.33-5.794-13.884C-7.91 22.664-2.9 11.888 20.963 20.334c-8.15-23.59 2.455-28.153 14.04-5.728C46.692-7.819 57.198-3.256 49.048 20.334c23.764-8.446 28.87 2.33 6.09 14.27" fill="#333" fill-rule="evenodd"></path></svg></g></g><mask id="e0818671-6a9c-4076-baf3-5e88ca812435"><g fill="white"><svg xmlns="http://www.w3.org/2000/svg" xmlns:xlink="http://www.w3.org/1999/xlink" version="1.1" x="0" y="0" viewBox="5 5 90 90" enable-background="new 0 0 100 100" xml:space="preserve" style="overflow: visible;" width="60" height="60" filtersec="colorsf7065111473"><g transform="scale(1, 1) skewX(0)"><polygon points="50,5 64.351,15.355 81.82,18.18 84.645,35.649 95,50 84.645,64.351 81.82,81.82 64.351,84.645 50,95 35.649,84.645   18.18,81.82 15.355,64.351 5,50 15.355,35.649 18.18,18.18 35.649,15.355 "></polygon></g><defs></defs></svg></g> <g fill="black"><svg viewBox="0 0 70 69" xmlns="http://www.w3.org/2000/svg" width="54" height="54" x="3" y="3" class="image-svg-icon"><path d="M55.136 34.604c22.78 11.555 18.166 21.94-5.598 13.884 8.348 23.492-2.554 28.54-14.534 6.02-12.079 22.52-22.979 17.472-14.435-6.02-23.863 8.057-28.478-2.33-5.794-13.884C-7.91 22.664-2.9 11.888 20.963 20.334c-8.15-23.59 2.455-28.153 14.04-5.728C46.692-7.819 57.198-3.256 49.048 20.334c23.764-8.446 28.87 2.33 6.09 14.27" fill-rule="evenodd"></path></svg></g></mask></svg> <defs><filter id="colors186719591"><feColorMatrix type="matrix" values="0 0 0 0 0.52734375  0 0 0 0 0.68359375  0 0 0 0 0.09765625  0 0 0 1 0" class="icon-fecolormatrix"></feColorMatrix></filter> <filter id="colorsf7065111473"><feColorMatrix type="matrix" values="0 0 0 0 0.99609375  0 0 0 0 0.99609375  0 0 0 0 0.99609375  0 0 0 1 0" class="icon-fecolormatrix"></feColorMatrix></filter> <filter id="colorsb2151991757"><feColorMatrix type="matrix" values="0 0 0 0 0  0 0 0 0 0  0 0 0 0 0  0 0 0 1 0" class="icon-fecolormatrix"></feColorMatrix></filter></defs><rect v-gra="id" width="79.5" height="79.5" transform="translate(-6, -6)" style="pointer-events:none;" fill="url(#EUUlgJIvMi-YJ-pTQzEvL)"></rect></g> <g transform="translate(28.684669494628906,25.578750610351562)"><g data-gra="path-name" fill-rule="" class="tp-name" transform="translate(0,0)"><g transform="scale(1)"><g><path d="M4.13-3.08L18.68-3.08 18.68-35.38Q18.68-37.79 20.83-37.79L20.83-37.79Q22.94-37.79 22.94-35.38L22.94-35.38 22.94-25.09 36.74-25.09Q39.11-25.09 39.11-23.03 39.11-20.96 36.74-20.96L36.74-20.96 22.94-20.96 22.94-3.08 40.83-3.08Q43.2-3.08 43.2-1.01 43.2 1.05 40.83 1.05L40.83 1.05 4.13 1.05Q1.8 1.05 1.8-1.01 1.8-3.08 4.13-3.08L4.13-3.08ZM65.74-33.79L65.74-33.79 86-33.79Q87.8-33.79 87.8-31.99L87.8-31.99Q87.8-30.23 86-30.23L86-30.23 64.03-30.23 63.85-29.88Q62.71-27.77 60.82-25.31 58.93-22.85 57.88-22.85L57.88-22.85Q55.99-22.85 55.99-24.83L55.99-24.83Q55.99-25.53 56.91-26.54L56.91-26.54Q60.25-30.1 62.4-35.82L62.4-35.82Q63.15-37.79 64.69-37.79L64.69-37.79Q66.58-37.79 66.58-36.34L66.58-36.34Q66.58-35.68 65.74-33.79ZM86.31-13.23L84.29-13.23 84.2-11.78 83.94-5.93 86.13-5.93Q87.76-5.93 87.76-4.26L87.76-4.26Q87.76-2.64 86.13-2.64L86.13-2.64 83.67-2.64Q83.19 0.92 81.74 2.15L81.74 2.15Q80.24 3.34 75.15 3.6L75.15 3.6 74.66 3.6Q72.86 3.6 72.86 1.67L72.86 1.67Q72.86 0.48 73.65 0.04L73.65 0.04Q74-0.13 76.27-0.18 78.53-0.22 79.28-0.62L79.28-0.62Q79.8-0.97 79.98-2.64L79.98-2.64 63.46-2.64Q59.55-2.64 59.55-5.8L59.55-5.8 60.21-11.95 60.29-13.1 60.34-13.23 58.32-13.23Q56.43-13.23 56.43-14.85 56.43-16.48 58.32-16.48L58.32-16.48 60.64-16.48 60.73-17.62 61.13-21.88Q61.22-26.94 65.26-26.85L65.26-26.85 80.68-26.85Q84.64-26.85 84.64-23.38L84.64-23.38 84.59-22.46 84.51-19.6 84.38-16.48 86.31-16.48Q88.2-16.48 88.2-14.85 88.2-13.23 86.31-13.23L86.31-13.23ZM80.29-5.93L80.68-13.23 73.92-13.23 73.83-11.65 73.7-10.06 73.43-5.93 80.29-5.93ZM70.05-5.93L70.53-13.23 63.94-13.23 63.5-9.05 63.33-7.12Q63.33-5.93 64.73-5.93L64.73-5.93 70.05-5.93ZM64.64-22.06L64.2-16.48 70.75-16.48 71.19-23.55 66.09-23.55Q64.78-23.51 64.64-22.06L64.64-22.06ZM74.18-17.14L74.14-16.48 80.77-16.48 80.82-16.66 80.82-16.83 80.99-21.53 81.04-22.28Q81.04-23.55 79.58-23.55L79.58-23.55 74.53-23.55 74.49-22.32 74.18-17.14ZM49.79-25.27L49.79-25.27Q50.76-25.27 54.4-23.51L54.4-23.51Q56.12-22.68 56.12-21.36L56.12-21.36Q56.12-19.25 54.05-19.25L54.05-19.25Q53.48-19.25 52.45-19.78 51.42-20.3 50.1-20.87L50.1-20.87Q47.77-21.88 47.77-23.25L47.77-23.25Q47.77-25.27 49.79-25.27ZM51.99-36.78L51.99-36.78Q52.91-36.78 55.57-35.4 58.23-34.01 58.23-32.65L58.23-32.65Q58.23-30.54 56.12-30.54L56.12-30.54Q55.55-30.54 54.49-31.16L54.49-31.16Q53.17-32.04 51.99-32.56L51.99-32.56Q49.92-33.57 49.92-34.76L49.92-34.76Q49.92-36.78 51.99-36.78ZM54.76-13.71L54.76-13.71Q56.73-13.71 56.73-11.78L56.73-11.78Q56.73-10.55 54.47-4.7 52.21 1.14 51.72 1.85L51.72 1.85Q51.11 2.64 50.05 2.64L50.05 2.64Q47.9 2.64 47.9 0.44L47.9 0.44Q47.9-0.09 48.3-0.83L48.3-0.83Q50.32-4.92 52.47-11.25L52.47-11.25Q53.31-13.71 54.76-13.71ZM120.19-33.31L126.78-33.31 126.39-33.53 124.63-35.16Q123.93-35.73 123.93-36.25L123.93-36.25Q123.93-37.57 125.42-37.57L125.42-37.57Q126.17-37.57 127.55-36.41 128.94-35.24 128.94-34.58L128.94-34.58Q128.94-33.66 127.88-33.31L127.88-33.31 131.04-33.31Q132.85-33.31 132.85-31.73L132.85-31.73Q132.85-30.19 131.04-30.19L131.04-30.19 120.19-30.19 120.19-27.77 127.22-27.77Q131.35-27.95 131.09-23.86L131.09-23.86 131.09-16.26Q131.31-12.17 127.22-12.39L127.22-12.39 127.13-12.39 127.13-9.67 131.4-9.67Q133.2-9.67 133.2-8.09 133.2-6.5 131.4-6.5L131.4-6.5 127.13-6.5 127.13-0.7Q127.35 3.6 123.05 3.6L123.05 3.6 119.05 3.6Q117.29 3.6 117.29 1.76L117.29 1.76Q117.29-0.13 118.87-0.13L118.87-0.13 121.99-0.13Q123.53-0.13 123.57-1.71L123.57-1.71 123.57-6.5 104.41-6.5Q102.61-6.5 102.61-8.09 102.61-9.67 104.41-9.67L104.41-9.67 123.57-9.67 123.57-12.39 110.3-12.39Q106.17-12.22 106.44-16.26L106.44-16.26 106.44-23.86Q106.17-27.99 110.3-27.77L110.3-27.77 116.98-27.77 116.98-30.19 105.82-30.19Q104.11-30.19 104.11-31.73L104.11-31.73Q104.11-33.31 105.82-33.31L105.82-33.31 116.98-33.31 116.98-36.12Q116.98-37.79 118.56-37.79L118.56-37.79Q120.19-37.79 120.19-36.12L120.19-36.12 120.19-33.31ZM116.98-18.9L109.69-18.9 109.69-16.57Q109.73-15.16 111.09-15.12L111.09-15.12 116.98-15.12 116.98-18.9ZM120.19-18.9L120.19-15.12 126.3-15.12Q127.71-15.16 127.75-16.57L127.75-16.57 127.75-18.9 120.19-18.9ZM109.69-23.55L109.69-21.45 116.98-21.45 116.98-25.05 111.09-25.05Q109.73-25 109.69-23.55L109.69-23.55ZM120.19-25.05L120.19-21.45 127.75-21.45 127.75-23.55Q127.71-25 126.3-25.05L126.3-25.05 120.19-25.05ZM100.99-35.77L100.99-26.37 103.54-26.37Q105.51-26.37 105.51-24.61 105.51-22.85 103.54-22.85L103.54-22.85 100.99-22.85 100.99 1.58Q100.99 3.6 99.18 3.6L99.18 3.6Q97.43 3.6 97.43 1.58L97.43 1.58 97.43-22.85 94.13-22.85Q91.8-22.85 91.8-24.61 91.8-26.37 94.13-26.37L94.13-26.37 97.43-26.37 97.43-35.77Q97.43-37.79 99.18-37.79L99.18-37.79Q100.99-37.79 100.99-35.77L100.99-35.77ZM110.26-5.54L110.26-5.54Q111.18-5.54 112.98-3.69 114.79-1.85 114.79-1.05L114.79-1.05Q114.79 0.7 113.03 0.7L113.03 0.7Q112.1 0.7 110.92-0.83L110.92-0.83 109.34-2.59Q108.54-3.43 108.54-4L108.54-4Q108.54-5.54 110.26-5.54ZM156.75-31.99L150.47-31.99 150.47-21.4 157.54-21.4Q159.65-21.4 159.65-19.51L159.65-19.51Q159.65-17.67 157.54-17.67L157.54-17.67 150.47-17.67 150.47 1.45Q150.47 3.6 148.54 3.6 146.6 3.6 146.6 1.45L146.6 1.45 146.6-17.67 138.87-17.67Q136.8-17.67 136.8-19.51L136.8-19.51Q136.8-21.4 138.87-21.4L138.87-21.4 146.6-21.4 146.6-31.99 140.36-31.99Q138.25-31.99 138.25-33.84L138.25-33.84Q138.25-35.73 140.36-35.73L140.36-35.73 156.75-35.73Q158.86-35.73 158.86-33.84L158.86-33.84Q158.86-31.99 156.75-31.99L156.75-31.99ZM171.96-2.99L171.96-2.99 171.96-35.02Q171.96-37.27 173.94-37.27 175.91-37.27 175.91-35.02L175.91-35.02 175.91-1.98Q176.26 3.56 170.68 3.25L170.68 3.25 167.43 3.25Q165.06 3.25 165.06 1.19 165.06-0.88 167.43-0.88L167.43-0.88 169.85-0.88Q172-0.83 171.96-2.99ZM165.54-31.73L165.54-7.82Q165.54-5.71 163.65-5.71 161.76-5.71 161.76-7.82L161.76-7.82 161.76-31.73Q161.76-33.84 163.65-33.84 165.54-33.84 165.54-31.73L165.54-31.73Z" transform="translate(-1.7999999523162842, 37.790000915527344)"></path></g> <!----> <!----> <!----> <!----> <!----> <!----> <!----></g></g> <g data-gra="path-slogan" fill-rule="" class="tp-slogan" fill="url(#247d2a04-ef37-4445-b92c-991a5d080090)" transform="translate(5,48.38999938964844)"><rect x="0" height="1" y="3.9750003814697266" width="25.979503631591797"></rect> <rect height="1" y="3.9750003814697266" width="25.979503631591797" x="138.1511573791504"></rect> <g transform="translate(28.979503631591797,0)"><g transform="scale(1)"><path d="M7.17-6.09L7.17-6.09L6.09-6.09Q6-7.73 3.94-7.83L3.94-7.83Q2.02-7.78 2.02-6.33L2.02-6.33Q2.02-5.39 3.05-5.25L3.05-5.25L5.48-4.69Q7.41-4.22 7.41-2.34L7.41-2.34Q7.36 0.05 4.03 0.14L4.03 0.14Q2.20 0.14 1.45-0.61L1.45-0.61Q0.52-1.31 0.56-2.77L0.56-2.77L1.69-2.77Q1.73-0.80 4.03-0.75L4.03-0.75Q6.28-0.80 6.33-2.20L6.33-2.20Q6.52-3.38 4.45-3.75L4.45-3.75L2.67-4.13Q0.84-4.64 0.84-6.19L0.84-6.19Q0.98-8.72 3.84-8.81L3.84-8.81Q7.08-8.81 7.17-6.09ZM10.03-5.06L14.53-5.06L14.53-8.58L15.70-8.58L15.70 0L14.53 0L14.53-3.98L10.03-3.98L10.03 0L8.86 0L8.86-8.58L10.03-8.58L10.03-5.06ZM23.16 0L22.31-2.48L18.84-2.48L17.95 0L16.78 0L20.02-8.58L21.33-8.58L24.42 0L23.16 0ZM20.58-7.31L19.22-3.52L21.89-3.52L20.63-7.31L20.58-7.31ZM26.86-8.58L31.17-1.64L31.17-8.58L32.30-8.58L32.30 0L30.98 0L26.63-6.94L26.58-6.94L26.58 0L25.45 0L25.45-8.58L26.86-8.58ZM40.50-3.61L37.88-3.61L37.88-4.59L41.63-4.59L41.63 0L40.88 0L40.59-1.08Q39.61 0.09 37.78 0.14L37.78 0.14Q36.05 0.14 35.11-0.75L35.11-0.75Q33.70-2.06 33.75-4.36L33.75-4.36Q34.08-8.63 37.83-8.81L37.83-8.81Q41.02-8.63 41.48-6L41.48-6L40.36-6Q39.89-7.78 37.78-7.83L37.78-7.83Q35.11-7.64 34.97-4.31L34.97-4.31Q34.97-0.75 37.83-0.75L37.83-0.75Q38.86-0.75 39.61-1.31L39.61-1.31Q40.55-2.06 40.50-3.61L40.50-3.61ZM44.58-5.06L49.08-5.06L49.08-8.58L50.25-8.58L50.25 0L49.08 0L49.08-3.98L44.58-3.98L44.58 0L43.41 0L43.41-8.58L44.58-8.58L44.58-5.06ZM57.70 0L56.86-2.48L53.39-2.48L52.50 0L51.33 0L54.56-8.58L55.88-8.58L58.97 0L57.70 0ZM55.13-7.31L53.77-3.52L56.44-3.52L55.17-7.31L55.13-7.31ZM60.19-8.58L61.36-8.58L61.36 0L60.19 0L60.19-8.58ZM69.89-7.64L67.83-7.64L67.83-4.97L69.89-4.97Q71.72-4.92 71.67-6.38L71.67-6.38Q71.67-7.64 69.89-7.64L69.89-7.64ZM70.36 0L66.66 0L66.66-8.58L70.45-8.58Q72.75-8.48 72.84-6.42L72.84-6.42Q72.84-5.16 71.72-4.64L71.72-4.64Q73.31-4.08 73.31-2.53L73.31-2.53Q73.17-0.09 70.36 0L70.36 0ZM70.08-3.98L67.83-3.98L67.83-0.98L70.31-0.98Q72.09-1.03 72.14-2.53L72.14-2.53Q72.14-3.98 70.08-3.98L70.08-3.98ZM81.42-4.27L81.42-4.27Q81.23-7.64 78.42-7.83L78.42-7.83Q75.56-7.69 75.42-4.27L75.42-4.27Q75.56-0.94 78.42-0.80L78.42-0.80Q81.23-0.98 81.42-4.27ZM82.59-4.27L82.59-4.27Q82.31 0 78.42 0.14L78.42 0.14Q74.48 0 74.20-4.27L74.20-4.27Q74.44-8.72 78.42-8.81L78.42-8.81Q82.31-8.67 82.59-4.27ZM86.48-4.31L85.13-3.05L85.13 0L83.95 0L83.95-8.58L85.13-8.58L85.13-4.41L89.30-8.58L90.94-8.58L87.33-5.11L91.03 0L89.48 0L86.48-4.31ZM97.59 0L96.75-2.48L93.28-2.48L92.39 0L91.22 0L94.45-8.58L95.77-8.58L98.86 0L97.59 0ZM95.02-7.31L93.66-3.52L96.33-3.52L95.06-7.31L95.02-7.31ZM101.30-8.58L105.61-1.64L105.61-8.58L106.73-8.58L106.73 0L105.42 0L101.06-6.94L101.02-6.94L101.02 0L99.89 0L99.89-8.58L101.30-8.58Z" transform="translate(-0.5602678571428572, 8.8125)"></path></g></g></g></g></g></g><mask id="48bef702-2891-4c80-83ad-3379f029d8ac"><g class="iconsvg-imagesvg icon_container" fill="white"><rect fill-opacity="1" stroke-width="2" x="0" y="0" width="67.5" height="67.5" class="image-rect"></rect> <svg viewBox="0 0 60 60" x="0" y="0" width="67.5" height="67.5" class="image-svg-svg bn" style="overflow: visible;"><g hollow-target="iconBnFill" mask="url(#e0818671-6a9c-4076-baf3-5e88ca812435)"><g><svg xmlns="http://www.w3.org/2000/svg" xmlns:xlink="http://www.w3.org/1999/xlink" version="1.1" x="0" y="0" viewBox="5 5 90 90" enable-background="new 0 0 100 100" xml:space="preserve" width="60" height="60" filter="url(#colorsf7065111473)"><g transform="scale(1, 1) skewX(0)"><polygon points="50,5 64.351,15.355 81.82,18.18 84.645,35.649 95,50 84.645,64.351 81.82,81.82 64.351,84.645 50,95 35.649,84.645   18.18,81.82 15.355,64.351 5,50 15.355,35.649 18.18,18.18 35.649,15.355 "></polygon></g><defs></defs></svg></g> <g><svg viewBox="0 0 70 69" xmlns="http://www.w3.org/2000/svg" width="54" height="54" x="3" y="3"><path d="M55.136 34.604c22.78 11.555 18.166 21.94-5.598 13.884 8.348 23.492-2.554 28.54-14.534 6.02-12.079 22.52-22.979 17.472-14.435-6.02-23.863 8.057-28.478-2.33-5.794-13.884C-7.91 22.664-2.9 11.888 20.963 20.334c-8.15-23.59 2.455-28.153 14.04-5.728C46.692-7.819 57.198-3.256 49.048 20.334c23.764-8.446 28.87 2.33 6.09 14.27" fill-rule="evenodd"></path></svg></g></g><mask id="e0818671-6a9c-4076-baf3-5e88ca812435"><g><svg xmlns="http://www.w3.org/2000/svg" xmlns:xlink="http://www.w3.org/1999/xlink" version="1.1" x="0" y="0" viewBox="5 5 90 90" enable-background="new 0 0 100 100" xml:space="preserve" width="60" height="60" filtersec="colorsf7065111473"><g transform="scale(1, 1) skewX(0)"><polygon points="50,5 64.351,15.355 81.82,18.18 84.645,35.649 95,50 84.645,64.351 81.82,81.82 64.351,84.645 50,95 35.649,84.645   18.18,81.82 15.355,64.351 5,50 15.355,35.649 18.18,18.18 35.649,15.355 "></polygon></g><defs></defs></svg></g> <g><svg viewBox="0 0 70 69" xmlns="http://www.w3.org/2000/svg" width="54" height="54" x="3" y="3"><path d="M55.136 34.604c22.78 11.555 18.166 21.94-5.598 13.884 8.348 23.492-2.554 28.54-14.534 6.02-12.079 22.52-22.979 17.472-14.435-6.02-23.863 8.057-28.478-2.33-5.794-13.884C-7.91 22.664-2.9 11.888 20.963 20.334c-8.15-23.59 2.455-28.153 14.04-5.728C46.692-7.819 57.198-3.256 49.048 20.334c23.764-8.446 28.87 2.33 6.09 14.27" fill-rule="evenodd"></path></svg></g></mask></svg> <defs>  </defs></g> <g transform="translate(28.684669494628906,25.578750610351562)"><rect fill="black" fill-opacity="1" x="-3.5" y="-3.5" width="181.1306610107422" height="48.38999938964844"></rect><rect fill="black" fill-opacity="1" x="-3.5" y="-3.5" transform="translate(5,48.38999938964844)" width="171.1306610107422" height="15.950000762939453"></rect></g><g transform="translate(28.684669494628906,25.578750610351562)" fill="black"><g data-gra="path-name" fill-rule="" class="tp-name" transform="translate(0,0)"><g transform="scale(1)"><g><path d="M4.13-3.08L18.68-3.08 18.68-35.38Q18.68-37.79 20.83-37.79L20.83-37.79Q22.94-37.79 22.94-35.38L22.94-35.38 22.94-25.09 36.74-25.09Q39.11-25.09 39.11-23.03 39.11-20.96 36.74-20.96L36.74-20.96 22.94-20.96 22.94-3.08 40.83-3.08Q43.2-3.08 43.2-1.01 43.2 1.05 40.83 1.05L40.83 1.05 4.13 1.05Q1.8 1.05 1.8-1.01 1.8-3.08 4.13-3.08L4.13-3.08ZM65.74-33.79L65.74-33.79 86-33.79Q87.8-33.79 87.8-31.99L87.8-31.99Q87.8-30.23 86-30.23L86-30.23 64.03-30.23 63.85-29.88Q62.71-27.77 60.82-25.31 58.93-22.85 57.88-22.85L57.88-22.85Q55.99-22.85 55.99-24.83L55.99-24.83Q55.99-25.53 56.91-26.54L56.91-26.54Q60.25-30.1 62.4-35.82L62.4-35.82Q63.15-37.79 64.69-37.79L64.69-37.79Q66.58-37.79 66.58-36.34L66.58-36.34Q66.58-35.68 65.74-33.79ZM86.31-13.23L84.29-13.23 84.2-11.78 83.94-5.93 86.13-5.93Q87.76-5.93 87.76-4.26L87.76-4.26Q87.76-2.64 86.13-2.64L86.13-2.64 83.67-2.64Q83.19 0.92 81.74 2.15L81.74 2.15Q80.24 3.34 75.15 3.6L75.15 3.6 74.66 3.6Q72.86 3.6 72.86 1.67L72.86 1.67Q72.86 0.48 73.65 0.04L73.65 0.04Q74-0.13 76.27-0.18 78.53-0.22 79.28-0.62L79.28-0.62Q79.8-0.97 79.98-2.64L79.98-2.64 63.46-2.64Q59.55-2.64 59.55-5.8L59.55-5.8 60.21-11.95 60.29-13.1 60.34-13.23 58.32-13.23Q56.43-13.23 56.43-14.85 56.43-16.48 58.32-16.48L58.32-16.48 60.64-16.48 60.73-17.62 61.13-21.88Q61.22-26.94 65.26-26.85L65.26-26.85 80.68-26.85Q84.64-26.85 84.64-23.38L84.64-23.38 84.59-22.46 84.51-19.6 84.38-16.48 86.31-16.48Q88.2-16.48 88.2-14.85 88.2-13.23 86.31-13.23L86.31-13.23ZM80.29-5.93L80.68-13.23 73.92-13.23 73.83-11.65 73.7-10.06 73.43-5.93 80.29-5.93ZM70.05-5.93L70.53-13.23 63.94-13.23 63.5-9.05 63.33-7.12Q63.33-5.93 64.73-5.93L64.73-5.93 70.05-5.93ZM64.64-22.06L64.2-16.48 70.75-16.48 71.19-23.55 66.09-23.55Q64.78-23.51 64.64-22.06L64.64-22.06ZM74.18-17.14L74.14-16.48 80.77-16.48 80.82-16.66 80.82-16.83 80.99-21.53 81.04-22.28Q81.04-23.55 79.58-23.55L79.58-23.55 74.53-23.55 74.49-22.32 74.18-17.14ZM49.79-25.27L49.79-25.27Q50.76-25.27 54.4-23.51L54.4-23.51Q56.12-22.68 56.12-21.36L56.12-21.36Q56.12-19.25 54.05-19.25L54.05-19.25Q53.48-19.25 52.45-19.78 51.42-20.3 50.1-20.87L50.1-20.87Q47.77-21.88 47.77-23.25L47.77-23.25Q47.77-25.27 49.79-25.27ZM51.99-36.78L51.99-36.78Q52.91-36.78 55.57-35.4 58.23-34.01 58.23-32.65L58.23-32.65Q58.23-30.54 56.12-30.54L56.12-30.54Q55.55-30.54 54.49-31.16L54.49-31.16Q53.17-32.04 51.99-32.56L51.99-32.56Q49.92-33.57 49.92-34.76L49.92-34.76Q49.92-36.78 51.99-36.78ZM54.76-13.71L54.76-13.71Q56.73-13.71 56.73-11.78L56.73-11.78Q56.73-10.55 54.47-4.7 52.21 1.14 51.72 1.85L51.72 1.85Q51.11 2.64 50.05 2.64L50.05 2.64Q47.9 2.64 47.9 0.44L47.9 0.44Q47.9-0.09 48.3-0.83L48.3-0.83Q50.32-4.92 52.47-11.25L52.47-11.25Q53.31-13.71 54.76-13.71ZM120.19-33.31L126.78-33.31 126.39-33.53 124.63-35.16Q123.93-35.73 123.93-36.25L123.93-36.25Q123.93-37.57 125.42-37.57L125.42-37.57Q126.17-37.57 127.55-36.41 128.94-35.24 128.94-34.58L128.94-34.58Q128.94-33.66 127.88-33.31L127.88-33.31 131.04-33.31Q132.85-33.31 132.85-31.73L132.85-31.73Q132.85-30.19 131.04-30.19L131.04-30.19 120.19-30.19 120.19-27.77 127.22-27.77Q131.35-27.95 131.09-23.86L131.09-23.86 131.09-16.26Q131.31-12.17 127.22-12.39L127.22-12.39 127.13-12.39 127.13-9.67 131.4-9.67Q133.2-9.67 133.2-8.09 133.2-6.5 131.4-6.5L131.4-6.5 127.13-6.5 127.13-0.7Q127.35 3.6 123.05 3.6L123.05 3.6 119.05 3.6Q117.29 3.6 117.29 1.76L117.29 1.76Q117.29-0.13 118.87-0.13L118.87-0.13 121.99-0.13Q123.53-0.13 123.57-1.71L123.57-1.71 123.57-6.5 104.41-6.5Q102.61-6.5 102.61-8.09 102.61-9.67 104.41-9.67L104.41-9.67 123.57-9.67 123.57-12.39 110.3-12.39Q106.17-12.22 106.44-16.26L106.44-16.26 106.44-23.86Q106.17-27.99 110.3-27.77L110.3-27.77 116.98-27.77 116.98-30.19 105.82-30.19Q104.11-30.19 104.11-31.73L104.11-31.73Q104.11-33.31 105.82-33.31L105.82-33.31 116.98-33.31 116.98-36.12Q116.98-37.79 118.56-37.79L118.56-37.79Q120.19-37.79 120.19-36.12L120.19-36.12 120.19-33.31ZM116.98-18.9L109.69-18.9 109.69-16.57Q109.73-15.16 111.09-15.12L111.09-15.12 116.98-15.12 116.98-18.9ZM120.19-18.9L120.19-15.12 126.3-15.12Q127.71-15.16 127.75-16.57L127.75-16.57 127.75-18.9 120.19-18.9ZM109.69-23.55L109.69-21.45 116.98-21.45 116.98-25.05 111.09-25.05Q109.73-25 109.69-23.55L109.69-23.55ZM120.19-25.05L120.19-21.45 127.75-21.45 127.75-23.55Q127.71-25 126.3-25.05L126.3-25.05 120.19-25.05ZM100.99-35.77L100.99-26.37 103.54-26.37Q105.51-26.37 105.51-24.61 105.51-22.85 103.54-22.85L103.54-22.85 100.99-22.85 100.99 1.58Q100.99 3.6 99.18 3.6L99.18 3.6Q97.43 3.6 97.43 1.58L97.43 1.58 97.43-22.85 94.13-22.85Q91.8-22.85 91.8-24.61 91.8-26.37 94.13-26.37L94.13-26.37 97.43-26.37 97.43-35.77Q97.43-37.79 99.18-37.79L99.18-37.79Q100.99-37.79 100.99-35.77L100.99-35.77ZM110.26-5.54L110.26-5.54Q111.18-5.54 112.98-3.69 114.79-1.85 114.79-1.05L114.79-1.05Q114.79 0.7 113.03 0.7L113.03 0.7Q112.1 0.7 110.92-0.83L110.92-0.83 109.34-2.59Q108.54-3.43 108.54-4L108.54-4Q108.54-5.54 110.26-5.54ZM156.75-31.99L150.47-31.99 150.47-21.4 157.54-21.4Q159.65-21.4 159.65-19.51L159.65-19.51Q159.65-17.67 157.54-17.67L157.54-17.67 150.47-17.67 150.47 1.45Q150.47 3.6 148.54 3.6 146.6 3.6 146.6 1.45L146.6 1.45 146.6-17.67 138.87-17.67Q136.8-17.67 136.8-19.51L136.8-19.51Q136.8-21.4 138.87-21.4L138.87-21.4 146.6-21.4 146.6-31.99 140.36-31.99Q138.25-31.99 138.25-33.84L138.25-33.84Q138.25-35.73 140.36-35.73L140.36-35.73 156.75-35.73Q158.86-35.73 158.86-33.84L158.86-33.84Q158.86-31.99 156.75-31.99L156.75-31.99ZM171.96-2.99L171.96-2.99 171.96-35.02Q171.96-37.27 173.94-37.27 175.91-37.27 175.91-35.02L175.91-35.02 175.91-1.98Q176.26 3.56 170.68 3.25L170.68 3.25 167.43 3.25Q165.06 3.25 165.06 1.19 165.06-0.88 167.43-0.88L167.43-0.88 169.85-0.88Q172-0.83 171.96-2.99ZM165.54-31.73L165.54-7.82Q165.54-5.71 163.65-5.71 161.76-5.71 161.76-7.82L161.76-7.82 161.76-31.73Q161.76-33.84 163.65-33.84 165.54-33.84 165.54-31.73L165.54-31.73Z" transform="translate(-1.7999999523162842, 37.790000915527344)"></path></g>       </g></g> <g data-gra="path-slogan" fill-rule="" class="tp-slogan" transform="translate(5,48.38999938964844)"><rect x="0" height="1" y="3.9750003814697266" width="25.979503631591797"></rect> <rect height="1" y="3.9750003814697266" width="25.979503631591797" x="138.1511573791504"></rect> <g transform="translate(28.979503631591797,0)"><g transform="scale(1)"><path d="M7.17-6.09L7.17-6.09L6.09-6.09Q6-7.73 3.94-7.83L3.94-7.83Q2.02-7.78 2.02-6.33L2.02-6.33Q2.02-5.39 3.05-5.25L3.05-5.25L5.48-4.69Q7.41-4.22 7.41-2.34L7.41-2.34Q7.36 0.05 4.03 0.14L4.03 0.14Q2.20 0.14 1.45-0.61L1.45-0.61Q0.52-1.31 0.56-2.77L0.56-2.77L1.69-2.77Q1.73-0.80 4.03-0.75L4.03-0.75Q6.28-0.80 6.33-2.20L6.33-2.20Q6.52-3.38 4.45-3.75L4.45-3.75L2.67-4.13Q0.84-4.64 0.84-6.19L0.84-6.19Q0.98-8.72 3.84-8.81L3.84-8.81Q7.08-8.81 7.17-6.09ZM10.03-5.06L14.53-5.06L14.53-8.58L15.70-8.58L15.70 0L14.53 0L14.53-3.98L10.03-3.98L10.03 0L8.86 0L8.86-8.58L10.03-8.58L10.03-5.06ZM23.16 0L22.31-2.48L18.84-2.48L17.95 0L16.78 0L20.02-8.58L21.33-8.58L24.42 0L23.16 0ZM20.58-7.31L19.22-3.52L21.89-3.52L20.63-7.31L20.58-7.31ZM26.86-8.58L31.17-1.64L31.17-8.58L32.30-8.58L32.30 0L30.98 0L26.63-6.94L26.58-6.94L26.58 0L25.45 0L25.45-8.58L26.86-8.58ZM40.50-3.61L37.88-3.61L37.88-4.59L41.63-4.59L41.63 0L40.88 0L40.59-1.08Q39.61 0.09 37.78 0.14L37.78 0.14Q36.05 0.14 35.11-0.75L35.11-0.75Q33.70-2.06 33.75-4.36L33.75-4.36Q34.08-8.63 37.83-8.81L37.83-8.81Q41.02-8.63 41.48-6L41.48-6L40.36-6Q39.89-7.78 37.78-7.83L37.78-7.83Q35.11-7.64 34.97-4.31L34.97-4.31Q34.97-0.75 37.83-0.75L37.83-0.75Q38.86-0.75 39.61-1.31L39.61-1.31Q40.55-2.06 40.50-3.61L40.50-3.61ZM44.58-5.06L49.08-5.06L49.08-8.58L50.25-8.58L50.25 0L49.08 0L49.08-3.98L44.58-3.98L44.58 0L43.41 0L43.41-8.58L44.58-8.58L44.58-5.06ZM57.70 0L56.86-2.48L53.39-2.48L52.50 0L51.33 0L54.56-8.58L55.88-8.58L58.97 0L57.70 0ZM55.13-7.31L53.77-3.52L56.44-3.52L55.17-7.31L55.13-7.31ZM60.19-8.58L61.36-8.58L61.36 0L60.19 0L60.19-8.58ZM69.89-7.64L67.83-7.64L67.83-4.97L69.89-4.97Q71.72-4.92 71.67-6.38L71.67-6.38Q71.67-7.64 69.89-7.64L69.89-7.64ZM70.36 0L66.66 0L66.66-8.58L70.45-8.58Q72.75-8.48 72.84-6.42L72.84-6.42Q72.84-5.16 71.72-4.64L71.72-4.64Q73.31-4.08 73.31-2.53L73.31-2.53Q73.17-0.09 70.36 0L70.36 0ZM70.08-3.98L67.83-3.98L67.83-0.98L70.31-0.98Q72.09-1.03 72.14-2.53L72.14-2.53Q72.14-3.98 70.08-3.98L70.08-3.98ZM81.42-4.27L81.42-4.27Q81.23-7.64 78.42-7.83L78.42-7.83Q75.56-7.69 75.42-4.27L75.42-4.27Q75.56-0.94 78.42-0.80L78.42-0.80Q81.23-0.98 81.42-4.27ZM82.59-4.27L82.59-4.27Q82.31 0 78.42 0.14L78.42 0.14Q74.48 0 74.20-4.27L74.20-4.27Q74.44-8.72 78.42-8.81L78.42-8.81Q82.31-8.67 82.59-4.27ZM86.48-4.31L85.13-3.05L85.13 0L83.95 0L83.95-8.58L85.13-8.58L85.13-4.41L89.30-8.58L90.94-8.58L87.33-5.11L91.03 0L89.48 0L86.48-4.31ZM97.59 0L96.75-2.48L93.28-2.48L92.39 0L91.22 0L94.45-8.58L95.77-8.58L98.86 0L97.59 0ZM95.02-7.31L93.66-3.52L96.33-3.52L95.06-7.31L95.02-7.31ZM101.30-8.58L105.61-1.64L105.61-8.58L106.73-8.58L106.73 0L105.42 0L101.06-6.94L101.02-6.94L101.02 0L99.89 0L99.89-8.58L101.30-8.58Z" transform="translate(-0.5602678571428572, 8.8125)"></path></g></g></g></g></mask><defs v-gra="od"><linearGradient x1="0" y1="1" x2="0" y2="0" id="247d2a04-ef37-4445-b92c-991a5d080090"><stop offset="0%" stop-color="#6e45e2"></stop><stop offset="100%" stop-color="#88d3ce"></stop></linearGradient><filter id="42443b3f1de60f6b6fd3b6a9844b4764" filterUnits="objectBoundingBox"><feColorMatrix type="matrix" values="0 0 0 0 0.99609375  0 0 0 0 0.99609375  0 0 0 0 0.99609375  0 0 0 1 0"></feColorMatrix></filter></defs><defs v-gra="id"><filter id="b6e57730-9634-435e-af2e-b2c372c9087d" filterUnits="userSpaceOnUse"><feColorMatrix type="matrix" values="0 0 0 0 0.99609375  0 0 0 0 0.99609375  0 0 0 0 0.99609375  0 0 0 1 0"></feColorMatrix></filter><linearGradient x1="0" y1="1" x2="0" y2="0" id="EUUlgJIvMi-YJ-pTQzEvL"><stop offset="0%" stop-color="#6e45e2"></stop><stop offset="100%" stop-color="#88d3ce"></stop></linearGradient><filter id="42443b3f1de60f6b6fd3b6a9844b4764" filterUnits="objectBoundingBox"><feColorMatrix type="matrix" values="0 0 0 0 0.99609375  0 0 0 0 0.99609375  0 0 0 0 0.99609375  0 0 0 1 0"></feColorMatrix></filter></defs><mask v-gra="im" id="52203fff-0e60-4981-a14a-30a23bca3577"><g fill="#3a211c" class="iconsvg-imagesvg icon_container" mask="url(#48bef702-2891-4c80-83ad-3379f029d8ac)" filter="url(#b6e57730-9634-435e-af2e-b2c372c9087d)"><rect fill="#1c085d" fill-opacity="0" stroke-width="2" x="0" y="0" width="67.5" height="67.5" class="image-rect"></rect> <svg viewBox="0 0 60 60" x="0" y="0" width="67.5" height="67.5" class="image-svg-svg bn" style="overflow: visible;"><g hollow-target="iconBnFill" mask="url(#e0818671-6a9c-4076-baf3-5e88ca812435)"><g><svg fill="#000000" xmlns="http://www.w3.org/2000/svg" xmlns:xlink="http://www.w3.org/1999/xlink" version="1.1" x="0" y="0" viewBox="5 5 90 90" enable-background="new 0 0 100 100" xml:space="preserve" style="overflow: visible;" width="60" height="60" filtersec="colorsf7065111473"><g transform="scale(1, 1) skewX(0)"><polygon points="50,5 64.351,15.355 81.82,18.18 84.645,35.649 95,50 84.645,64.351 81.82,81.82 64.351,84.645 50,95 35.649,84.645   18.18,81.82 15.355,64.351 5,50 15.355,35.649 18.18,18.18 35.649,15.355 "></polygon></g><defs><filter id="DowHCe_FT18MnoMtJmr5s"><feColorMatrix type="matrix" values="0 0 0 0 0.2265625  0 0 0 0 0.12890625  0 0 0 0 0.109375  0 0 0 1 0"></feColorMatrix></filter></defs></svg></g> <g><svg viewBox="0 0 70 69" xmlns="http://www.w3.org/2000/svg" width="54" height="54" x="3" y="3" class="image-svg-icon"><path d="M55.136 34.604c22.78 11.555 18.166 21.94-5.598 13.884 8.348 23.492-2.554 28.54-14.534 6.02-12.079 22.52-22.979 17.472-14.435-6.02-23.863 8.057-28.478-2.33-5.794-13.884C-7.91 22.664-2.9 11.888 20.963 20.334c-8.15-23.59 2.455-28.153 14.04-5.728C46.692-7.819 57.198-3.256 49.048 20.334c23.764-8.446 28.87 2.33 6.09 14.27" fill="#333" fill-rule="evenodd"></path></svg></g></g><mask id="e0818671-6a9c-4076-baf3-5e88ca812435"><g fill="white"><svg xmlns="http://www.w3.org/2000/svg" xmlns:xlink="http://www.w3.org/1999/xlink" version="1.1" x="0" y="0" viewBox="5 5 90 90" enable-background="new 0 0 100 100" xml:space="preserve" style="overflow: visible;" width="60" height="60" filtersec="colorsf7065111473"><g transform="scale(1, 1) skewX(0)"><polygon points="50,5 64.351,15.355 81.82,18.18 84.645,35.649 95,50 84.645,64.351 81.82,81.82 64.351,84.645 50,95 35.649,84.645   18.18,81.82 15.355,64.351 5,50 15.355,35.649 18.18,18.18 35.649,15.355 "></polygon></g><defs></defs></svg></g> <g fill="black"><svg viewBox="0 0 70 69" xmlns="http://www.w3.org/2000/svg" width="54" height="54" x="3" y="3" class="image-svg-icon"><path d="M55.136 34.604c22.78 11.555 18.166 21.94-5.598 13.884 8.348 23.492-2.554 28.54-14.534 6.02-12.079 22.52-22.979 17.472-14.435-6.02-23.863 8.057-28.478-2.33-5.794-13.884C-7.91 22.664-2.9 11.888 20.963 20.334c-8.15-23.59 2.455-28.153 14.04-5.728C46.692-7.819 57.198-3.256 49.048 20.334c23.764-8.446 28.87 2.33 6.09 14.27" fill-rule="evenodd"></path></svg></g></mask></svg> <defs><filter id="colors186719591"><feColorMatrix type="matrix" values="0 0 0 0 0.52734375  0 0 0 0 0.68359375  0 0 0 0 0.09765625  0 0 0 1 0" class="icon-fecolormatrix"></feColorMatrix></filter> <filter id="colorsf7065111473"><feColorMatrix type="matrix" values="0 0 0 0 0.99609375  0 0 0 0 0.99609375  0 0 0 0 0.99609375  0 0 0 1 0" class="icon-fecolormatrix"></feColorMatrix></filter> <filter id="colorsb2151991757"><feColorMatrix type="matrix" values="0 0 0 0 0  0 0 0 0 0  0 0 0 0 0  0 0 0 1 0" class="icon-fecolormatrix"></feColorMatrix></filter></defs></g></mask></svg>